<svg width="88" height="88" viewBox="30 25 94 97" xmlns="http://www.w3.org/2000/svg" xmlns:xlink="http://www.w3.org/1999/xlink"><defs><path id="a" d="M0 .528V22.94h5.724V.53H0z"/><path id="c" d="M19.154 4.818V.3H.236v4.518h18.918z"/></defs><g fill="none" fill-rule="evenodd" transform="translate(32 25)"><circle stroke="#121F49" stroke-width="3" fill="#FFF" cx="45" cy="50" r="45"/><path d="M50.314 46.494v20.628c0 1.92-5.978 3.474-13.352 3.474-7.38 0-13.358-1.554-13.358-3.474v-9.06c0 .918 1.747 1.746 4.515 2.31V56.16c2.357-.576 5.45-.96 8.842-.96v-5.622s1.39.138 3.185-.084c0 0-.006 0-.006-.006 5.84-.33 10.174-1.542 10.174-2.994" fill="#9FA5CD"/><path d="M40.11 3.012c0-.402-1.413-.732-3.148-.732-1.74 0-3.15.33-3.15.732 0 .402 1.41.726 3.15.726 1.735 0 3.15-.324 3.15-.726m10.202 29.25v14.232c0-1.704-5.978-3.084-13.352-3.084v-7.8c-7.38 0-13.358 1.38-13.358 3.084v-6.432c0-4.476 2.237-8.43 5.658-10.83 1.39-.978 2.12-2.562 2.242-4.242V2.082h.018c-.006-.03-.018-.066-.018-.096 0-.768 2.442-1.386 5.458-1.386 3.01 0 5.452.618 5.452 1.386 0 .03-.006.066-.018.096h.018V17.19c.23 1.506.852 3.264 2.242 4.242 3.427 2.4 5.658 6.354 5.658 10.83" fill="#DCDBEB"/><path d="M36.962 43.41c7.374 0 13.352 1.38 13.352 3.084 0 1.452-4.334 2.664-10.173 2.994-2.628-1.788-3.686-2.634-2.44-3.456 1.77-1.182-.738-2.622-.738-2.622" fill="#FEFEFE"/><path d="M36.962 43.41s2.508 1.44.737 2.622c-1.246.822-.188 1.668 2.44 3.456-1.014.06-2.084.09-3.178.09-3.39 0-6.485-.288-8.843-.768v-4.632c2.357-.48 5.45-.768 8.842-.768" fill="#FDCEA1"/><path d="M36.962 49.578V55.2c-3.39 0-6.485.384-8.843.96v-7.35c2.357.48 5.45.768 8.842.768M36.962 35.61v7.8c-3.39 0-6.485.288-8.843.768V41.01c-2.77-.57-4.516-1.392-4.516-2.316 0-1.704 5.978-3.084 13.358-3.084" fill="#EDA65B"/><path d="M28.12 56.16v4.212c-2.77-.564-4.516-1.392-4.516-2.31V38.694c0 .924 1.747 1.746 4.515 2.316V56.16z" fill="#F05B29"/><path d="M41.832 1.865l-.005.013.005-.013zm-9.724.817V17.19c-.142 2.006-1.052 3.715-2.497 4.732-3.382 2.373-5.4 6.238-5.4 10.34v34.86c0 1.172 4.967 2.874 12.752 2.874 7.78 0 12.747-1.702 12.747-2.874v-34.86c0-4.106-2.02-7.972-5.402-10.34C42.57 20.7 42 18.49 41.818 17.28l-.008-.09V2.682h-.28l.245-.66c-.37-.31-2.028-.822-4.813-.822-2.827 0-4.494.526-4.834.835l.127.647h-.147zm4.854 68.514c-6.938 0-13.962-1.4-13.962-4.074v-34.86c0-4.49 2.21-8.723 5.913-11.32 1.165-.82 1.87-2.167 1.988-3.795V1.482h.14C31.897.046 36.4 0 36.962 0c.56 0 5.06.046 5.916 1.482H43l.012.39c.004.038.007.076.007.114l-.003.05.002.046v15.062c.16 1.03.633 2.847 1.986 3.798 3.7 2.592 5.912 6.824 5.912 11.32v34.86c0 2.674-7.02 4.074-13.956 4.074z" fill="#131741"/><path d="M35.225 3.01c.44.072 1.027.128 1.737.128.71 0 1.295-.056 1.735-.128-.44-.074-1.025-.13-1.735-.13-.71 0-1.296.056-1.737.13m1.737 1.328c-1.402 0-3.754-.173-3.754-1.326 0-1.16 2.352-1.332 3.754-1.332 1.402 0 3.753.173 3.753 1.332 0 1.153-2.35 1.326-3.753 1.326" fill="#131741"/><g transform="translate(23 38.166)"><mask id="b" fill="#fff"><use xlink:href="#a"/></mask><path d="M5.724 22.94l-.726-.147C1.682 22.118 0 21.143 0 19.896h1.21c0 .215.628.927 3.305 1.562V3.328C1.518 2.65 0 1.71 0 .527h1.21c0 .233.74 1.05 4.032 1.728l.482.1V22.94z" fill="#131741" mask="url(#b)"/></g><path d="M71.166 53.322l-.556 9.096-.09-.006c0-.852-3.675-1.536-8.208-1.536-4.528 0-8.202.684-8.202 1.536l-.097.006-.556-9.096c0 .918 3.965 1.662 8.855 1.662 4.895 0 8.854-.744 8.854-1.662" fill="#DCDCEA"/><path d="M70.61 62.418l-.5 8.286c0 .918-2.903 1.662-7.798 1.662-4.89 0-7.79-.744-7.79-1.662l-.51-8.286.098-.006c0 .846 3.674 1.536 8.202 1.536 4.533 0 8.208-.69 8.208-1.536l.09.006z" fill="#9FA5CD"/><path d="M62.312 51.666c4.895 0 8.854.738 8.854 1.656 0 .918-3.96 1.662-8.854 1.662-4.89 0-8.855-.744-8.855-1.662 0-.918 3.965-1.656 8.855-1.656" fill="#DCDCEA"/><path d="M62.312 60.876c4.533 0 8.208.684 8.208 1.536 0 .846-3.675 1.536-8.208 1.536-4.528 0-8.202-.69-8.202-1.536 0-.852 3.674-1.536 8.202-1.536" fill="#FEFEFE"/><path d="M62.312 72.966c-3.135 0-8.396-.294-8.396-2.262l-1.062-17.346 1.206-.073 1.063 17.382c.195.345 2.224 1.1 7.19 1.1 4.967 0 6.998-.755 7.203-1.12l1.047-17.362 1.206.073-1.06 17.382c.003 1.932-5.26 2.226-8.398 2.226" fill="#131741"/><g transform="translate(52.617 50.766)"><mask id="d" fill="#fff"><use xlink:href="#c"/></mask><path d="M1.57 2.556c.71.42 3.468 1.062 8.125 1.062 4.66 0 7.415-.642 8.126-1.062C17.11 2.14 14.355 1.5 9.696 1.5c-4.658 0-7.414.64-8.126 1.056m8.125 2.262c-1.58 0-9.46-.11-9.46-2.262C.236.408 8.116.3 9.696.3c1.58 0 9.46.108 9.46 2.256 0 2.153-7.88 2.262-9.46 2.262" fill="#131741" mask="url(#d)"/></g><path d="M58.473 58.122l-.556 9.096-.09-.006c0-.852-3.675-1.536-8.208-1.536-4.528 0-8.203.684-8.203 1.536l-.097.006-.556-9.096c0 .918 3.965 1.662 8.855 1.662 4.894 0 8.853-.744 8.853-1.662" fill="#DCDCEA"/><path d="M57.917 67.218l-.5 8.286c0 .918-2.903 1.662-7.798 1.662-4.89 0-7.792-.744-7.792-1.662l-.508-8.286.097-.006c0 .846 3.675 1.536 8.202 1.536 4.532 0 8.207-.69 8.207-1.536l.09.006z" fill="#9FA5CD"/><path d="M49.62 56.466c4.894 0 8.853.738 8.853 1.656 0 .918-3.96 1.662-8.854 1.662-4.89 0-8.856-.744-8.856-1.662 0-.918 3.965-1.656 8.855-1.656" fill="#DCDCEA"/><path d="M49.62 65.676c4.532 0 8.207.684 8.207 1.536 0 .846-3.675 1.536-8.208 1.536-4.528 0-8.203-.69-8.203-1.536 0-.852 3.675-1.536 8.202-1.536" fill="#FEFEFE"/><path d="M49.62 77.766c-3.136 0-8.397-.294-8.397-2.262L40.16 58.158l1.207-.073 1.063 17.382c.195.345 2.224 1.1 7.19 1.1 4.967 0 6.998-.755 7.203-1.12l1.047-17.362 1.206.073L58.02 75.54c0 1.932-5.264 2.226-8.4 2.226" fill="#131741"/><path d="M41.493 58.122c.712.42 3.47 1.062 8.126 1.062 4.658 0 7.414-.642 8.125-1.062-.71-.417-3.467-1.056-8.126-1.056-4.66 0-7.415.64-8.127 1.056m8.126 2.262c-1.58 0-9.46-.11-9.46-2.262 0-2.148 7.88-2.256 9.46-2.256 1.58 0 9.458.108 9.458 2.256 0 2.153-7.88 2.262-9.46 2.262" fill="#131741"/></g></svg>