<svg width="44" height="18" viewBox="0 0 44 18" fill="none" xmlns="http://www.w3.org/2000/svg">
<path fill-rule="evenodd" clip-rule="evenodd" d="M43.291 7.92242C39.027 5.31128 33.7712 4.05417 29.3273 4.16924L25.612 0.384264C25.1097 -0.1276 24.295 -0.1276 23.7926 0.384264C23.2901 0.896128 23.2901 1.72596 23.7926 2.23783L26.7769 5.27808C25.0004 6.27332 23.2098 6.65823 21.5298 6.68164C20.8104 8.09102 20.2758 9.13691 19.8664 9.93802C19.0195 11.5949 18.7079 12.2048 18.4025 12.8177C18.2246 13.1748 18.0489 13.5329 17.7708 14.0996C17.6238 14.3993 17.4482 14.7572 17.2284 15.2042H26.8972C26.4322 11.4779 29.2901 8.21391 32.9363 8.21391C36.5306 8.21391 39.3859 11.3979 38.9887 15.0967C41.789 14.5604 43.9148 12.052 43.9148 9.04576C43.9147 8.5858 43.678 8.15939 43.291 7.92242ZM16.258 11.3284C15.1877 9.43739 13.1982 8.21391 10.9791 8.21391C7.38428 8.21391 4.52865 11.3985 4.9268 15.0987C3.09501 14.7518 1.51263 13.5624 0.648502 11.8227C0.428074 11.3788 0.473532 10.8456 0.765664 10.447L1.72054 9.14406L0.396167 7.84876C-0.355006 7.11425 0.0197228 5.82463 1.03507 5.61798L3.89034 5.03669L3.89042 5.03667L3.8907 5.03661C6.52774 4.49969 7.86781 4.22684 7.93681 4.21486C8.25055 4.06937 9.00636 3.624 9.00636 2.70906C9.00636 1.97499 9.59877 1.38178 10.3231 1.39873C11.0353 1.41542 11.591 2.06124 11.5788 2.78691C11.5685 3.39752 11.4373 3.9328 11.2311 4.39818C12.8363 4.61225 14.4076 4.99497 15.9301 5.54362L15.2318 3.07124C15.0355 2.37562 15.4299 1.64951 16.1127 1.44941C16.7958 1.24923 17.5084 1.65117 17.7048 2.34688L18.4538 4.99882C18.6906 5.8373 18.602 6.73564 18.2069 7.50964C18.2138 7.49619 17.275 9.33455 16.258 11.3284ZM10.9791 18.0003C12.9212 18.0003 14.4956 16.3964 14.4956 14.4178C14.4956 12.4392 12.9212 10.8353 10.9791 10.8353C9.03692 10.8353 7.4625 12.4392 7.4625 14.4178C7.4625 16.3964 9.03692 18.0003 10.9791 18.0003ZM32.9362 18.0003C34.8783 18.0003 36.4528 16.3964 36.4528 14.4178C36.4528 12.4392 34.8783 10.8353 32.9362 10.8353C30.994 10.8353 29.4196 12.4392 29.4196 14.4178C29.4196 16.3964 30.994 18.0003 32.9362 18.0003Z" fill="#19B89D"/>
</svg>
