<svg width="44" height="24" viewBox="0 0 44 24" fill="none" xmlns="http://www.w3.org/2000/svg">
<path fill-rule="evenodd" clip-rule="evenodd" d="M25.4751 5.69368C28.7743 5.69278 28.9455 5.69274 29.116 5.70425L29.1445 5.70625C29.1722 5.70822 29.2038 5.71048 29.2509 5.71306L28.62 4.13431C27.6355 1.67065 25.2865 0.0787354 22.6356 0.0787354H18.5277L20.2107 5.69448C22.5244 5.69448 24.2211 5.69402 25.4701 5.69368H25.4721L25.4751 5.69368ZM7.88223 5.69448L9.0044 0.0788214H3.43909C2.87526 0.0788214 2.3769 0.445617 2.20872 0.984284C1.6242 2.8566 1.19712 4.22385 0.884909 5.22338L0.884838 5.22361L0.737732 5.69456H7.88223V5.69448ZM15.8361 0.0788214L17.5191 5.69448H10.5116L11.6335 0.0788214H15.8361ZM7.65003 12.5828V8.27504H0.00408398C-0.000603004 8.59625 -0.000274738 9.37756 0.000567122 11.3813L0.000732422 11.7777H1.46262C2.17452 11.7777 2.75168 12.3554 2.75168 13.068C2.75168 13.7806 2.17452 14.3583 1.46262 14.3583H0.00150586L0.00167773 15.9927C0.00167773 18.0515 1.61567 19.7394 3.64362 19.8566C3.36115 16.7743 5.00522 13.9355 7.65003 12.5828ZM41.2531 13.0056C41.2182 13.7466 41.808 14.3583 42.5407 14.3583H43.986C43.8225 16.5831 42.4162 18.551 40.3864 19.4081C40.5164 15.1965 37.1307 11.7777 33.0016 11.7777C28.6855 11.7777 25.2399 15.4959 25.6441 19.8637H18.359C18.7898 15.2086 14.8561 11.3328 10.2281 11.8181V8.27504H17.9624V9.7374C17.9624 10.4707 18.5735 11.0612 19.3138 11.0263C20.0072 10.9936 20.5406 10.3957 20.5406 9.70093V8.27504H28.8413L41.8975 8.99117C42.4393 9.02093 42.9047 9.38764 43.0614 9.90764L43.2568 10.556L43.2579 10.5598C43.4208 11.1 43.5382 11.4894 43.6242 11.7777H42.5771C41.883 11.7777 41.2857 12.3116 41.2531 13.0056ZM32.2996 23.9409C34.4624 24.2587 36.5451 23.0809 37.4116 21.1015C38.8005 17.9247 36.4593 14.3583 33.0017 14.3583C30.0864 14.3583 27.8208 16.9486 28.2391 19.8637C28.5392 21.9534 30.1923 23.6316 32.2996 23.9409ZM6.23902 19.8637C5.81956 16.9402 8.09587 14.3583 11.0016 14.3583C13.919 14.3583 16.1822 16.9509 15.7642 19.8636C15.5232 21.5414 14.402 22.9926 12.8019 23.6417C10.9655 24.3866 8.86484 23.9242 7.50187 22.4769C6.48513 21.3973 6.30409 20.2505 6.25558 19.9432C6.24743 19.8916 6.24302 19.8637 6.23902 19.8637Z" fill="#26B5C0"/>
</svg>
