<svg width="88" height="88" viewBox="30 28 94 94" xmlns="http://www.w3.org/2000/svg" xmlns:xlink="http://www.w3.org/1999/xlink"><defs><path id="a" d="M0 41.965h52V0H0z"/></defs><g fill="none" fill-rule="evenodd"><path d="M77 120c24.853 0 45-20.147 45-45s-20.147-45-45-45-45 20.147-45 45 20.147 45 45 45z" stroke="#121F49" stroke-width="3" fill="#FFF"/><g transform="translate(50 54)"><path d="M51.35 1.967v37.92c0 .786-.61 1.422-1.494 1.422H2.144c-.885 0-1.494-.637-1.494-1.422V1.968" fill="#FFF"/><path d="M51.35 1.967v37.92c0 .786-.61 1.422-1.494 1.422H2.144c-.885 0-1.494-.637-1.494-1.422V1.968" stroke="#37238B" stroke-width="2"/><mask id="b" fill="#fff"><use xlink:href="#a"/></mask><path fill="#757EBB" mask="url(#b)" d="M12.35 40.654H50.7V6.557H12.35"/><path d="M11.05 5.246h37.7V3.28h-37.7v1.966zm-3.9 0h2.6V3.28h-2.6v1.966zm-3.9 0h2.6V3.28h-2.6v1.966zM50.375 0H1.625C.727 0 0 .878 0 1.783v6.085h52V1.783C52 .878 51.273 0 50.375 0zM16.738 33.264h29.25V14.002h-29.25" fill="#37238B" mask="url(#b)"/><path d="M35.303 21.878c0 1.946-1.564 3.524-3.494 3.524-1.93 0-3.494-1.578-3.494-3.524 0-1.947 1.564-3.525 3.493-3.525 1.93 0 3.493 1.578 3.493 3.525" fill="#FFF" mask="url(#b)"/><path d="M33.303 24.995h-2.987c-2.552 0-4.62 2.087-4.62 4.66v3.61h12.227v-3.61c0-2.573-2.068-4.66-4.62-4.66" fill="#FFF" mask="url(#b)"/><path d="M33.736 36.555c0 .96-.77 1.74-1.724 1.74-.95 0-1.723-.78-1.723-1.74s.77-1.74 1.722-1.74c.953 0 1.724.78 1.724 1.74" fill="#F15A2B" mask="url(#b)"/></g></g></svg>