<svg width="88" height="88" viewBox="30 28 94 94" xmlns="http://www.w3.org/2000/svg" xmlns:xlink="http://www.w3.org/1999/xlink"><defs><path id="a" d="M26.185 25.718V.056H.1v25.662z"/></defs><g fill="none" fill-rule="evenodd" transform="translate(32 30)"><circle stroke="#121F49" stroke-width="3" fill="#FFF" cx="45" cy="45" r="45"/><path fill="#757EBB" d="M15.747 25.71l3.574 40.264 54.546-4.685-2.54-28.633-6.437-5.308-6.43-5.31"/><path d="M16.53 26.355l3.447 38.85 53.107-4.562-2.453-27.63-12.405-10.24-41.696 3.582zm2.79 40.328c-.168 0-.333-.058-.463-.165-.146-.12-.238-.294-.255-.482L15.03 25.77c-.036-.39.258-.734.654-.768l42.713-3.668c.19-.016.38.043.527.163l12.864 10.617c.146.12.238.293.255.48l2.54 28.633c.035.39-.258.735-.655.77L19.383 66.68c-.02.003-.04.003-.062.003z" fill="#272F58"/><path d="M59.33 23.686l.82 9.218 9.37-.805-10.19-8.414zm.162 10.697c-.37 0-.685-.28-.718-.648L57.74 22.103c-.024-.286.128-.56.387-.692.26-.13.574-.097.797.087L71.78 32.114c.224.185.313.483.225.757-.088.275-.334.47-.625.495L59.556 34.38l-.064.003z" fill="#272F58"/><path d="M44.11 31.792c-.03 0-.063 0-.095-.005-.816-.1-1.662-.122-2.478-.07-.413.03-.77-.28-.8-.688-.026-.407.287-.76.7-.787.91-.058 1.855-.033 2.765.078.41.052.703.42.652.825-.048.374-.37.647-.744.647m-9.898 2.605c-.227 0-.45-.1-.6-.292-.25-.325-.184-.788.146-1.035.736-.55 1.528-1.03 2.355-1.43.372-.178.822-.027 1.005.34.183.366.028.808-.343.988-.74.357-1.45.787-2.11 1.278-.135.102-.295.15-.453.15m17.002.486c-.172 0-.345-.057-.486-.176-.63-.53-1.313-1-2.03-1.398-.363-.2-.49-.65-.286-1.006.204-.355.662-.48 1.022-.28.803.445 1.566.97 2.268 1.56.315.265.353.73.084 1.042-.15.17-.36.258-.572.258m-21.597 5.68c-.084 0-.17-.013-.252-.043-.39-.137-.594-.56-.455-.944.31-.855.705-1.683 1.177-2.464.212-.35.672-.465 1.03-.257.355.208.473.662.26 1.01-.422.7-.776 1.442-1.053 2.207-.11.302-.398.49-.707.49m25.82.737c-.324 0-.624-.21-.72-.533-.23-.78-.54-1.54-.92-2.262-.19-.362-.048-.808.32-.995.368-.188.82-.046 1.012.316.424.806.77 1.657 1.028 2.527.117.392-.112.802-.51.916-.07.02-.14.03-.21.03m.29 6.307c-.047 0-.096-.004-.145-.014-.406-.078-.672-.466-.592-.865.158-.794.237-1.61.237-2.427 0-.407.336-.737.75-.737.415 0 .752.33.752.738 0 .913-.09 1.824-.266 2.71-.07.353-.384.597-.737.597m-26.51.59c-.34 0-.646-.226-.73-.564-.217-.88-.347-1.786-.388-2.695-.02-.407.3-.753.715-.77.41-.01.766.297.784.704.035.814.152 1.626.347 2.413.097.396-.15.795-.553.89-.06.016-.12.022-.178.022m22.895 6.176c-.188 0-.378-.07-.524-.21-.297-.286-.302-.753-.012-1.045.578-.582 1.1-1.22 1.554-1.9.228-.34.693-.434 1.04-.21.347.223.442.68.215 1.022-.505.757-1.09 1.47-1.736 2.12-.146.148-.34.223-.536.223m-18.97.422c-.182 0-.367-.066-.51-.198-.675-.62-1.292-1.307-1.832-2.042-.243-.33-.168-.792.168-1.03.336-.24.805-.166 1.048.164.484.657 1.036 1.272 1.64 1.827.303.278.32.746.036 1.044-.148.157-.348.235-.55.235m12.177 3.287c-.345 0-.656-.236-.733-.58-.09-.4.168-.793.573-.88.807-.174 1.6-.426 2.357-.75.38-.162.822.01.987.384.166.374-.008.81-.388.972-.846.36-1.733.643-2.634.837-.054.01-.108.017-.16.017m-5.218.116c-.043 0-.086-.003-.13-.01-.91-.154-1.807-.396-2.67-.72-.386-.145-.58-.572-.433-.953.148-.38.583-.572.97-.426.77.288 1.573.505 2.388.642.408.068.683.45.613.852-.063.36-.38.614-.738.614" fill="#A8AED3"/><path d="M30.79 37.623l-3.57-.817c-.363-.083-.583-.445-.485-.798l4.122-15.52 4.017.92-3.293 15.71c-.07.36-.43.588-.79.505" fill="#F1592B"/><path d="M27.45 36.13l3.437.787 3.14-14.973-2.65-.607L27.45 36.13zm3.503.802h.004-.004zm-.08.05zm.07 1.37c-.107 0-.212-.013-.318-.038l-3.57-.817c-.36-.082-.678-.31-.87-.624-.19-.314-.244-.698-.146-1.052l4.12-15.51c.098-.372.48-.6.86-.512l4.018.92c.38.087.622.457.543.834l-3.292 15.71c-.07.353-.29.672-.603.87-.225.144-.482.22-.743.22z" fill="#272F58"/><path d="M33.823 26.59l-3.942-2.554" fill="#F1592B"/><path d="M33.823 27.3c-.137 0-.274-.038-.396-.117l-3.943-2.554c-.332-.217-.424-.658-.205-.985.218-.327.665-.418.998-.202l3.942 2.554c.333.216.425.656.205.984-.138.208-.368.32-.602.32" fill="#272F58"/><path d="M36.026 30.56l-.73-.375.985-5.466c.172-.952-.443-1.87-1.4-2.088" fill="#F1592B"/><path d="M36.025 31.3c-.117 0-.236-.028-.347-.085l-.73-.375c-.29-.15-.448-.466-.39-.784l.983-5.466c.104-.565-.262-1.11-.83-1.24-.404-.092-.655-.488-.56-.886.093-.397.498-.643.9-.552 1.346.308 2.21 1.598 1.97 2.935l-.888 4.935.242.125c.368.19.51.635.317.997-.133.25-.395.395-.665.395" fill="#272F58"/><path d="M27.837 37.742l1.828.42" fill="#F1592B"/><path d="M29.666 38.9c-.056 0-.113-.007-.17-.02l-1.83-.418c-.403-.093-.654-.49-.56-.887.094-.397.498-.644.9-.552l1.83.418c.403.094.655.49.56.888-.08.34-.388.57-.73.57" fill="#272F58"/><path d="M28.41 39.39l.342-1.44" fill="#F1592B"/><path d="M28.412 39.944c-.042 0-.086-.005-.13-.015-.3-.07-.49-.368-.42-.666l.34-1.438c.072-.298.374-.483.677-.414.302.07.49.368.42.665l-.34 1.438c-.06.256-.293.43-.548.43" fill="#272F58"/><path d="M30.466 61.313c-.114 0-.23-.024-.336-.077-.318-.158-.48-.512-.39-.85L36.2 36.507c.106-.395.517-.63.918-.525.4.106.64.51.532.904l-5.525 20.437 21.86-27.2c.257-.32.73-.375 1.054-.123.325.255.38.72.123 1.04L31.056 61.032c-.147.182-.366.28-.59.28" fill="#A8AED3"/><path d="M46.473 47.105c-.19 0-.384-.072-.53-.216l-5.138-5.055c-.293-.29-.293-.756 0-1.045.293-.288.77-.288 1.062 0l5.137 5.054c.293.29.293.756 0 1.045-.146.143-.34.215-.53.215M48.47 30.496c-.132 0-.265-.034-.386-.106-.355-.21-.47-.664-.256-1.014l2.677-4.37c.214-.348.675-.46 1.03-.25.356.21.47.664.256 1.013l-2.677 4.37c-.14.23-.388.356-.643.356" fill="#A8AED3"/><path d="M52.013 29.462c-.12 0-.24-.03-.355-.09l-4.356-2.307c-.365-.193-.502-.64-.305-1 .196-.358.65-.495 1.016-.3l4.357 2.308c.365.193.5.64.305 1-.136.248-.394.39-.662.39" fill="#A8AED3"/><path fill="#F1592B" d="M50.102 43.63H74.5L49.914 67.818"/><g transform="translate(49.065 42.837)"><mask id="b" fill="#fff"><use xlink:href="#a"/></mask><path d="M1.783 1.533l-.168 21.65 22.007-21.65H1.782zM.85 25.718c-.098 0-.196-.02-.29-.057-.28-.115-.463-.386-.46-.686L.286.79C.29.382.625.055 1.037.055h24.398c.303 0 .577.18.693.456.116.276.052.593-.163.804L1.38 25.5c-.142.143-.335.218-.53.218z" fill="#272F58" mask="url(#b)"/></g><path fill="#757EBB" d="M54.952 48.8h8.38l-8.444 8.31"/><path d="M55.698 49.54l-.046 5.772 5.87-5.773h-5.824zm-.81 8.307c-.098 0-.197-.02-.29-.057-.28-.116-.463-.387-.46-.688l.064-8.307c.003-.406.338-.733.75-.733h8.38c.305 0 .578.18.695.456.115.276.05.593-.163.804l-8.445 8.31c-.145.14-.336.215-.532.215zM53.105 46.954c-.414 0-.75-.33-.75-.738V43.63c0-.406.336-.738.75-.738.415 0 .75.332.75.74v2.584c0 .408-.335.738-.75.738M60.987 46.954c-.414 0-.75-.33-.75-.738V43.63c0-.406.336-.738.75-.738.415 0 .75.332.75.74v2.584c0 .408-.335.738-.75.738M57.234 46.216c-.414 0-.75-.33-.75-.74v-1.845c0-.407.336-.737.75-.737s.75.33.75.738v1.847c0 .408-.336.74-.75.74M64.74 46.216c-.414 0-.75-.33-.75-.74v-1.845c0-.407.336-.737.75-.737.415 0 .752.33.752.738v1.847c0 .408-.337.74-.75.74M68.494 46.954c-.414 0-.75-.33-.75-.738V43.63c0-.406.336-.738.75-.738s.75.332.75.74v2.584c0 .408-.336.738-.75.738" fill="#272F58"/></g></svg>